<svg xmlns="http://www.w3.org/2000/svg" viewBox="0 0 111.97 121.21"><defs><style>.cls-1{fill:#fff;}</style></defs><g id="Warstwa_2" data-name="Warstwa 2"><g id="Warstwa_1-2" data-name="Warstwa 1"><path class="cls-1" d="M89,63.91a1.46,1.46,0,0,0,.18-.82c.58-2.68,1.06-5.46,1.41-8.38.15-1.21.26-2.42.34-3.62V51a72.51,72.51,0,0,0-2.65-24.82A16.87,16.87,0,0,0,67.52,14.67,73.32,73.32,0,0,0,43.89,26C27.49,38,18.63,51.41,17.56,66c-.25,3.35-.9,12.25,4.43,21.19A37.6,37.6,0,0,0,34.65,99.32a29.45,29.45,0,0,0,12.89,3.91c10.4.65,17.93-4.39,21.15-6.55C78.83,89.9,85.62,78.89,89,63.91ZM40.7,83.72c-.33-2.9-.68-5.89-2.82-7.56a19.71,19.71,0,0,1,9.21-3.9c1.3-.15,1.61,0,1.76.06,2.43,1.07,2.4,8,1.62,12.93-.77.18-1.57.4-2.41.64A29.56,29.56,0,0,0,40.86,89,32.22,32.22,0,0,0,40.7,83.72Zm-5-47c0,.43,0,.87,0,1.3a12.67,12.67,0,0,1-1.62,5.74,1.54,1.54,0,0,0-.08.19l-.85.76a7.84,7.84,0,0,0-3.45.5,15.65,15.65,0,0,0-1.77.66A60.29,60.29,0,0,1,35.67,36.71Zm8.9,4.82a3.24,3.24,0,0,1,1.26-.09c1.6.7,1.37,6.78.21,12a10.66,10.66,0,0,0-1.41.09,20.2,20.2,0,0,0-6.76,2.23c.13-3.71-.38-7.35-2-9.4A19.55,19.55,0,0,1,44.57,41.53ZM58.66,21a12.4,12.4,0,0,1,0,11.58c-.28,0-.58,0-.92.07a20.06,20.06,0,0,0-8.19,3,15.49,15.49,0,0,0,.19-3.46,15.66,15.66,0,0,0-1.44-5.56A68.54,68.54,0,0,1,58.66,21Zm13.7,8.56c1.17-.13,1.44,0,1.57.05,2.18.95,2.16,7.44,1.42,12a8.3,8.3,0,0,0-1.83.05,20.63,20.63,0,0,0-9.17,3.62c.31-3.49.29-8.49-1.85-11.09A19.23,19.23,0,0,1,72.36,29.57Zm15.28,9A67.44,67.44,0,0,1,88,49.75a19.39,19.39,0,0,0-5.49,2.11,18.23,18.23,0,0,0-2.23,1.52c.2-3.16,0-7.16-1.55-9.6a15.93,15.93,0,0,1,8.94-5.21Zm0,15.77c-.33,2.72-.76,5.3-1.29,7.79a18.26,18.26,0,0,0-2.23,1.07,17.72,17.72,0,0,0-2.53,1.74c0-2.72-.3-5.5-1.62-7.17a16,16,0,0,1,7.81-4.87C87.68,53.38,87.65,53.86,87.59,54.34ZM58,35.64c1.17-.13,1.44,0,1.57,0,2.12.94,2.16,7,1.5,11.52a9.4,9.4,0,0,0-1.79.06,22.14,22.14,0,0,0-9.8,3.87c.56-3.59.9-8.62-.94-11.17A18.93,18.93,0,0,1,58,35.64Zm1.62,14.61a3.42,3.42,0,0,1,1.76.06c2.38,1.06,2.39,7.91,1.62,12.87a10.49,10.49,0,0,0-1.28.09,22.65,22.65,0,0,0-10.45,4.56c.49-3.95.74-10.06-1.84-12.93A20.45,20.45,0,0,1,59.66,50.25ZM64.44,49a18.77,18.77,0,0,1,9.42-4.31,3,3,0,0,1,1.58,0c2.12.94,2.15,7,1.49,11.55a8.61,8.61,0,0,0-1.57.13,20.84,20.84,0,0,0-9,4.19C66.69,56.88,66.63,51.71,64.44,49ZM36.75,59.88a1.16,1.16,0,0,0,.39-.26A19,19,0,0,1,45,56.46c1.25-.16,1.54,0,1.68,0l.15.08c2.13,1.21,2,7.81,1.23,12.63a11,11,0,0,0-1.32.08,22.24,22.24,0,0,0-10,4c.35-4.7-.08-9.33-2-11.92C35.44,60.85,36.09,60.34,36.75,59.88ZM52,71.12a20.51,20.51,0,0,1,10.17-4.87c1.25-.16,1.54,0,1.68,0a.61.61,0,0,1,.14.07c2.1,1.19,2,7.57,1.28,12.37-3.22-.36-7.53,1.64-11.47,4.36C54.13,79.42,54.18,74,52,71.12Zm14.42-6.66a19.55,19.55,0,0,1,9.46-5.1c1-.17,1.26-.07,1.34,0,1.55.67,1.65,5.83.81,10.73-2.33-.42-5.57.67-9.25,3.16C68.79,69.87,68.29,66.34,66.39,64.46Zm14.33,7.35c.13-.6.27-1.39.41-2.3l.07-.06a16.12,16.12,0,0,1,4.22-3.56A63.91,63.91,0,0,1,82,75.9c-.06-.41-.13-.82-.22-1.23A8.53,8.53,0,0,0,80.72,71.81Zm6.52-36.22a19.24,19.24,0,0,0-5.91,2.19,18.86,18.86,0,0,0-2.7,1.88c.33-3.35.4-8.36-1.54-11.15a16.33,16.33,0,0,1,3.56-2.78,15.94,15.94,0,0,1,3.56-1.51A12.79,12.79,0,0,1,85.38,27,73.77,73.77,0,0,1,87.24,35.59ZM79,18.89a13.78,13.78,0,0,1,3.41,2.77,18.22,18.22,0,0,0-5.67,3.15,18.62,18.62,0,0,0-.28-7A13.71,13.71,0,0,1,79,18.89ZM68.33,17.56a13.86,13.86,0,0,1,4.85-.44v.07a16.37,16.37,0,0,1,.75,4.7,16.84,16.84,0,0,1-.63,4.63,10.13,10.13,0,0,0-1.28.07,20.75,20.75,0,0,0-9.39,3.78A15.39,15.39,0,0,0,63,25.79a15.7,15.7,0,0,0-1.61-5.93Q64.79,18.56,68.33,17.56ZM45.65,28.44l.11-.07a12.39,12.39,0,0,1-.2,10,8.11,8.11,0,0,0-1.56.18,18.38,18.38,0,0,0-5.65,2.21,15.38,15.38,0,0,0,.36-2.69,15.79,15.79,0,0,0-.38-3.87C41.31,31.61,44,29.66,45.65,28.44ZM24.25,52.32a1.35,1.35,0,0,0,.32-.27,12.65,12.65,0,0,1,6-4,4.34,4.34,0,0,1,2.33-.36c1.19.45,2.47,3.81,1.82,9.94-.8.57-1.6,1.18-2.38,1.86-1.63-.52-3.23,0-4.93.58a19.83,19.83,0,0,0-6.61,3.84A39.67,39.67,0,0,1,24.25,52.32ZM20.42,68.57a1.14,1.14,0,0,0,.16-.15,17.48,17.48,0,0,1,7.8-5.48c1.34-.45,2.4-.81,3.09-.56,1.75.62,3,5.27,2.08,12.7a15.61,15.61,0,0,0-5.66,2.15,17.31,17.31,0,0,0-5.2,4.66A32.44,32.44,0,0,1,20.42,68.57Zm4.15,17.1c-.14-.24-.27-.48-.4-.72a1.68,1.68,0,0,0,.24-.29,14.59,14.59,0,0,1,5-4.83c1.11-.63,4.5-2.57,6.39-1.49h0c1.28.74,1.6,2.75,1.94,5.73a30.3,30.3,0,0,1-.12,7.54,1.61,1.61,0,0,0-.07.49,35.9,35.9,0,0,1-1.09,4.8A34.33,34.33,0,0,1,24.57,85.67Zm23.15,14.57a26.29,26.29,0,0,1-8.54-2,41.25,41.25,0,0,0,1.27-5.34,26.9,26.9,0,0,1,8.42-4.12c2.48-.69,4.6-1.3,5.68-.57,1.57,1.06,2,5.35-.15,11.23a1.61,1.61,0,0,0-.08.38A26.07,26.07,0,0,1,47.72,100.24Zm10-1.33c1.93-6.14,1.38-11.23-1.52-13.19a4.4,4.4,0,0,0-.56-.31c5.1-3.49,9-4.4,10.32-3.32.58.49.82,1.59,1.13,3a17.46,17.46,0,0,1-.72,9.52h0A35.47,35.47,0,0,1,57.75,98.91ZM70.2,91.79a19.92,19.92,0,0,0-.15-7.35c-.37-1.72-.74-3.35-2-4.49.13-.72.28-1.7.41-2.83,5-4,8.6-4.67,9.53-3.9a4.35,4.35,0,0,1,.79,2.12,13,13,0,0,1-.49,7.13s0,.1,0,.16A40.77,40.77,0,0,1,70.2,91.79Z"/><path class="cls-1" d="M100.62,33.49A1.51,1.51,0,0,1,99.48,31l4.82-5.62a1.5,1.5,0,1,1,2.28,1.95L101.76,33A1.5,1.5,0,0,1,100.62,33.49Z"/><path class="cls-1" d="M103.82,37.77a1.5,1.5,0,0,1-.19-3l6.65-.83a1.5,1.5,0,1,1,.37,3l-6.65.83Z"/><path class="cls-1" d="M106.8,46.52a1.5,1.5,0,0,1-1-.34l-4.65-3.87a1.5,1.5,0,0,1,1.92-2.3l4.65,3.86A1.5,1.5,0,0,1,108,46,1.48,1.48,0,0,1,106.8,46.52Z"/><path class="cls-1" d="M4.05,67a1.5,1.5,0,0,1-.81-2.76l6.22-4a1.5,1.5,0,1,1,1.63,2.52l-6.23,4A1.5,1.5,0,0,1,4.05,67Z"/><path class="cls-1" d="M8.11,58.37l-.25,0L1.25,57.24A1.49,1.49,0,0,1,0,55.52a1.51,1.51,0,0,1,1.73-1.24l6.61,1.11a1.5,1.5,0,0,1-.25,3Z"/><path class="cls-1" d="M11.49,54.49a1.48,1.48,0,0,1-1.25-.67l-3.35-5a1.5,1.5,0,0,1,2.5-1.66l3.34,5a1.5,1.5,0,0,1-.41,2.08A1.52,1.52,0,0,1,11.49,54.49Z"/><path class="cls-1" d="M35.68,16.18a6.25,6.25,0,0,1-1.76-.26c-4.63-1.42-4.79-8-4.79-8.29A10.61,10.61,0,0,1,30.88,1.7,3.72,3.72,0,0,1,33.44,0a3.79,3.79,0,0,1,3,.85,12.78,12.78,0,0,1,3,3.63c.6,1.11,3.47,6.82.34,10A5.71,5.71,0,0,1,35.68,16.18ZM34,3h-.11a.7.7,0,0,0-.49.31,7.53,7.53,0,0,0-1.27,4.26s.15,4.7,2.67,5.47h0a3,3,0,0,0,2.81-.6c1.28-1.3.2-4.6-.83-6.49A9.91,9.91,0,0,0,34.5,3.18.77.77,0,0,0,34,3Z"/><path class="cls-1" d="M99.48,89.19c-2.36,0-6.87-.47-8.23-3.89a6,6,0,0,1,1.16-6h0c3.24-3.71,9.45-1.12,9.71-1a10.8,10.8,0,0,1,4.79,4.1,3.72,3.72,0,0,1,.48,3.06,3.88,3.88,0,0,1-2,2.43,13,13,0,0,1-4.63,1.25C100.48,89.16,100,89.19,99.48,89.19Zm-4.81-7.91A3.06,3.06,0,0,0,94,84.19c.7,1.76,4.24,2.13,6.46,2a10,10,0,0,0,3.56-1,.85.85,0,0,0,.44-.52.79.79,0,0,0-.1-.62,7.73,7.73,0,0,0-3.46-3s-4.48-1.83-6.27.22Z"/><path class="cls-1" d="M75,121.21a3.49,3.49,0,0,1-.65-.06,3.8,3.8,0,0,1-2.59-1.77,12.72,12.72,0,0,1-1.69-4.45c-.23-1.26-1.14-7.65,2.88-9.72a5.93,5.93,0,0,1,6,.56c4,2.84,2,9.22,1.94,9.49a10.75,10.75,0,0,1-3.59,5.13A3.74,3.74,0,0,1,75,121.21Zm.41-13.57a2.42,2.42,0,0,0-1.09.23c-1.66.86-1.68,4.38-1.3,6.54a9.87,9.87,0,0,0,1.3,3.41.8.8,0,0,0,.55.38.72.72,0,0,0,.58-.15,7.71,7.71,0,0,0,2.61-3.69s1.37-4.59-.82-6.15h0A3.17,3.17,0,0,0,75.44,107.64Z"/></g></g></svg>