<svg xmlns="http://www.w3.org/2000/svg" viewBox="0 0 295.64 252.53"><defs><style>.cls-1{fill:#fff;}</style></defs><g id="Warstwa_2" data-name="Warstwa 2"><g id="Warstwa_1-2" data-name="Warstwa 1"><path class="cls-1" d="M147.72,252.52a12,12,0,0,1-6-1.58C93.08,223.48,52.87,189.15,25.48,152-9.21,105-8.38,46.68,27.38,16.3A67.56,67.56,0,0,1,89.84,2.57c17.25,5,40.11,19,58,56,17.87-36.93,40.56-50.94,58-55.95A67.56,67.56,0,0,1,268.26,16.3C304,46.68,304.85,105,270.15,152c-27.38,37.15-67.59,71.34-116.26,98.9a11.93,11.93,0,0,1-6.17,1.58Z"/></g></g></svg>