<svg xmlns="http://www.w3.org/2000/svg" viewBox="0 0 74.86 91.87"><defs><style>.cls-1{fill:#fff;}</style></defs><g id="Warstwa_2" data-name="Warstwa 2"><g id="Warstwa_1-2" data-name="Warstwa 1"><path class="cls-1" d="M70.88,39.56a1.52,1.52,0,0,0-1.44.25l-4.29,3.48a32.77,32.77,0,0,0-.08-4.54A38.21,38.21,0,0,0,56.51,18.2a1.5,1.5,0,0,0-2.31,0l-8.3,9.74a42.81,42.81,0,0,0-17.67-15.5,1.49,1.49,0,0,0-2,.71A38.62,38.62,0,0,0,22.8,24.6a41.25,41.25,0,0,0,.28,13l-12.35-.43a1.51,1.51,0,0,0-1.55,1.6,34.77,34.77,0,0,0,4.5,14.73A34,34,0,0,0,21,62.36l-6.47,1.4a1.5,1.5,0,0,0-.87,2.39A40.61,40.61,0,0,0,32.23,79.58c3.15,1.06,11.25,3.78,20.38.63l2.2,5.28a1.5,1.5,0,0,0,2.77-1.16l-2.19-5.25c4.55-2.17,10.27-6.5,14.22-15.12a37.32,37.32,0,0,0,2.24-23.31A1.5,1.5,0,0,0,70.88,39.56Zm-4,23.15c-3.54,7.74-8.6,11.64-12.65,13.6L52,71,63,57.37a1.5,1.5,0,1,0-2.34-1.88L50.69,67.83l-6-14.35,8.55-13.82a1.5,1.5,0,1,0-2.55-1.58l-7.42,12L35.81,32.18a1.5,1.5,0,1,0-2.76,1.16l7.4,17.74L26.74,47.29a1.5,1.5,0,0,0-.8,2.89l16,4.42,5.94,14.24L32.3,66.42a1.5,1.5,0,1,0-.46,3l17.38,2.71,2.23,5.35c-8.1,2.72-15.41.26-18.26-.7a37,37,0,0,1-15.6-10.57l7.19-1.56a1.5,1.5,0,0,0,1.16-1.17,1.52,1.52,0,0,0-.61-1.52,30.83,30.83,0,0,1-9-9.94A31.62,31.62,0,0,1,12.34,40.2l12.53.43a1.5,1.5,0,0,0,1.52-1.83A38.43,38.43,0,0,1,25.77,25a36.14,36.14,0,0,1,2.54-9.21A39.86,39.86,0,0,1,44.4,31.21a1.48,1.48,0,0,0,1.16.75,1.53,1.53,0,0,0,1.28-.52l8.44-9.92A34.65,34.65,0,0,1,62.08,39a30.71,30.71,0,0,1-.27,7.48A1.49,1.49,0,0,0,62.54,48a1.51,1.51,0,0,0,1.7-.14l5.13-4.16A33.81,33.81,0,0,1,66.88,62.71Z"/><path class="cls-1" d="M60,10.26a1.51,1.51,0,0,1-1.47-1.2L57,1.81a1.5,1.5,0,1,1,2.94-.61l1.5,7.25a1.5,1.5,0,0,1-1.16,1.78Z"/><path class="cls-1" d="M65.06,9.91a1.5,1.5,0,0,1-1.29-2.26l3.42-5.77a1.5,1.5,0,0,1,2.58,1.53L66.35,9.18A1.5,1.5,0,0,1,65.06,9.91Z"/><path class="cls-1" d="M67.46,14.46a1.5,1.5,0,0,1-.32-3l5.9-1.3a1.5,1.5,0,1,1,.65,2.93l-5.91,1.3A1.12,1.12,0,0,1,67.46,14.46Z"/><path class="cls-1" d="M13.09,91.87H13a1.5,1.5,0,0,1-1.39-1.6l.53-7.39a1.5,1.5,0,0,1,3,.21l-.53,7.39A1.49,1.49,0,0,1,13.09,91.87Z"/><path class="cls-1" d="M3.75,88a1.5,1.5,0,0,1-1-2.58l4.86-4.62A1.5,1.5,0,1,1,9.64,83L4.78,87.63A1.47,1.47,0,0,1,3.75,88Z"/><path class="cls-1" d="M7.53,78.4H7.45l-6-.34a1.5,1.5,0,1,1,.18-3l6,.35a1.5,1.5,0,0,1-.09,3Z"/></g></g></svg>