<svg xmlns="http://www.w3.org/2000/svg" viewBox="0 0 77.21 151.56"><defs><style>.cls-1{fill:#fff;}</style></defs><g id="Warstwa_2" data-name="Warstwa 2"><g id="Warstwa_1-2" data-name="Warstwa 1"><path class="cls-1" d="M56.11,102.11a40.37,40.37,0,0,0-13.41,9.68,36,36,0,0,0-6.22,9.58V106.76a28.64,28.64,0,0,1,7.3-17.3A31.75,31.75,0,0,1,54.4,81.8a1.5,1.5,0,0,0-1.23-2.74,34.89,34.89,0,0,0-11.62,8.39,31.16,31.16,0,0,0-5.07,7.6V82.9h.06A31.08,31.08,0,0,1,43,65.24a28.14,28.14,0,0,1,9.23-7.62,1.5,1.5,0,0,0,.64-2,1.49,1.49,0,0,0-2-.64,31.16,31.16,0,0,0-10.21,8.42,32,32,0,0,0-4.11,6.84V61.28h.15a35.89,35.89,0,0,1,5.29-17.76A24.89,24.89,0,0,1,49.47,36a1.5,1.5,0,0,0-1.6-2.54,27.6,27.6,0,0,0-8.46,8.48,32.73,32.73,0,0,0-2.93,5.65V35.78a41.31,41.31,0,0,1,3.44-13.43A21.12,21.12,0,0,1,45,15.28a1.5,1.5,0,0,0-2-2.27,24.11,24.11,0,0,0-5.86,8.06c-.26.55-.5,1.1-.73,1.66V2.63a1.5,1.5,0,0,0-3,0V23.15c-.24-.66-.5-1.31-.79-2A24.69,24.69,0,0,0,27.07,13a1.5,1.5,0,1,0-2,2.2A21.72,21.72,0,0,1,30,22.41a43.9,43.9,0,0,1,3.32,16.78h.21v6.9A32.33,32.33,0,0,0,31.37,42a27.69,27.69,0,0,0-8.12-8.57,1.5,1.5,0,1,0-1.67,2.49,24.62,24.62,0,0,1,7.23,7.66,34.16,34.16,0,0,1,4.67,14.87V69.2a31,31,0,0,0-3.36-5.69A30.59,30.59,0,0,0,20.32,55a1.5,1.5,0,0,0-1.45,2.63,27.75,27.75,0,0,1,8.85,7.7,30.27,30.27,0,0,1,5.76,16.19V94.32a30.28,30.28,0,0,0-4.37-6.75A34,34,0,0,0,18,79.08a1.5,1.5,0,1,0-1.31,2.7,31,31,0,0,1,10.19,7.74A27.86,27.86,0,0,1,33.47,107h0v13.94a34.86,34.86,0,0,0-5.6-9A39.15,39.15,0,0,0,15,102.13a1.5,1.5,0,1,0-1.3,2.7,36.27,36.27,0,0,1,11.9,9,32.49,32.49,0,0,1,7.77,20.45h.11v15.73a1.5,1.5,0,0,0,3,0V133a33.42,33.42,0,0,1,8.45-19.15,37.29,37.29,0,0,1,12.42-9,1.5,1.5,0,1,0-1.24-2.73Z"/><path class="cls-1" d="M8.76,13l-7.38.62a1.5,1.5,0,0,0,.12,3h.12L9,16a1.5,1.5,0,0,0-.25-3Z"/><path class="cls-1" d="M10.07,8.16,4.76,4.07A1.5,1.5,0,1,0,2.93,6.45l5.31,4.09a1.49,1.49,0,0,0,2.1-.28A1.49,1.49,0,0,0,10.07,8.16Z"/><path class="cls-1" d="M14,9h.14a1.5,1.5,0,0,0,1.35-1.64l-.59-6a1.5,1.5,0,1,0-3,.3l.59,6A1.49,1.49,0,0,0,14,9Z"/><path class="cls-1" d="M67,100.75a1.5,1.5,0,0,0,.81-.24l6.23-4A1.5,1.5,0,1,0,72.37,94l-6.23,4a1.5,1.5,0,0,0,.81,2.76Z"/><path class="cls-1" d="M76,103.54l-6.61-1.12a1.5,1.5,0,0,0-.5,3l6.61,1.12a1.06,1.06,0,0,0,.25,0,1.5,1.5,0,0,0,.25-3Z"/><path class="cls-1" d="M67,106.94a1.5,1.5,0,0,0-2.5,1.66l3.33,5a1.52,1.52,0,0,0,1.26.67,1.46,1.46,0,0,0,.82-.25,1.51,1.51,0,0,0,.43-2.08Z"/></g></g></svg>