<?xml version="1.0" encoding="utf-8"?>
<!-- Generator: Adobe Illustrator 26.0.3, SVG Export Plug-In . SVG Version: 6.00 Build 0)  -->
<svg version="1.1" id="Warstwa_1" xmlns="http://www.w3.org/2000/svg" xmlns:xlink="http://www.w3.org/1999/xlink" x="0px" y="0px"
	 viewBox="0 0 1052.4 744.1" style="enable-background:new 0 0 1052.4 744.1;" xml:space="preserve">
<style type="text/css">
	.st0{fill:#1000DF;}
</style>
<g>
	<path class="st0" d="M763.8,98.9l-0.2,0.4l-599.3,39.3l-0.8,0.1c-15.2,2.4-29.7,12.5-39.8,27.7c-9.4,14.1-13.2,30.1-10.3,43
		l49.5,252.2l0.5,1.3c8.7,23.5,28.4,39,52.6,41.5l0.9,0.1l477.9-0.5l-11,65.3c-33.4,3.4-60.7,28-68.1,60l-259.3-1.5
		c-8.3-34.3-39.2-59.8-75.9-59.8c-43.1,0-78.1,35.1-78.1,78.1s35,78.1,78.1,78.1c37.8,0,69.5-27,76.6-62.8l258.3,1.5
		c7.4,35.4,38.9,62.1,76.5,62.1c43.1,0,78.1-35.1,78.1-78.1c0-34.2-22-63.2-52.6-73.8l77.2-459.9c26.3-43.9,59.2-56.3,120.2-45.8
		l5.7-33.2C844.4,21.1,797.6,40.5,763.8,98.9z M280.4,687.4c-22.7,0-41.2-18.5-41.2-41.2s18.5-41.2,41.2-41.2s41.2,18.5,41.2,41.2
		C321.7,668.9,303.2,687.4,280.4,687.4z M218.6,470.8c-10.6-1.4-19-8-23.3-18.5l-49-249.7l-0.1-0.7c-0.6-2.5,0.4-9.2,5.5-16.8
		c4.6-6.9,10.9-11.8,16.5-13L757,133.5l-56.5,336.8L218.6,470.8z M733,646.9c0,22.7-18.5,41.2-41.2,41.2s-41.2-18.5-41.2-41.2
		s18.5-41.2,41.2-41.2S733,624.2,733,646.9z"/>
	<path class="st0" d="M269.3,279.3c0.4,0,0.9,0,1.3,0l386.7-26.1c10.8-0.7,19-10.1,18.3-20.9c-0.7-10.8-10.1-19-20.9-18.3L268,240.1
		c-10.8,0.7-19,10.1-18.3,20.9C250.4,271.4,259,279.3,269.3,279.3z"/>
	<path class="st0" d="M657,349.5C657,349.5,656.9,349.5,657,349.5l-387.6,1.1c-10.8,0-19.6,8.9-19.6,19.7c0,10.8,8.8,19.6,19.6,19.6
		c0,0,0,0,0.1,0l387.6-1.1c10.8,0,19.6-8.9,19.6-19.7C676.6,358.3,667.8,349.5,657,349.5z"/>
</g>
</svg>
