<?xml version="1.0" encoding="utf-8"?>
<!-- Generator: Adobe Illustrator 26.0.3, SVG Export Plug-In . SVG Version: 6.00 Build 0)  -->
<svg version="1.1" id="Layer_1" xmlns="http://www.w3.org/2000/svg" xmlns:xlink="http://www.w3.org/1999/xlink" x="0px" y="0px"
	 viewBox="0 0 45.5 31.5" style="enable-background:new 0 0 45.5 31.5;" xml:space="preserve">
<style type="text/css">
	.st0{fill:none;stroke:#1000DF;stroke-width:3;stroke-linecap:round;stroke-miterlimit:10;}
</style>
<path class="st0" d="M3.5,29.4L8.3,27c4.5-2.3,9.8-2.3,14.3,0l2.6,1.3c4.6,2.3,10.1,2.2,14.7-0.2l4.1-2.2"/>
<path class="st0" d="M1.5,5.6l4.8-2.4c4.5-2.3,9.8-2.3,14.3,0l2.6,1.3c4.6,2.3,10.1,2.2,14.6-0.2L42,2.1"/>
<path class="st0" d="M2.5,17.5l4.8-2.4c4.5-2.3,9.8-2.3,14.3,0l2.6,1.3c4.6,2.3,10.1,2.2,14.6-0.2l4.1-2.2"/>
</svg>
