<svg width="293" height="179" viewBox="0 0 293 179" fill="none" xmlns="http://www.w3.org/2000/svg">
<path d="M221.074 59.142C220.365 59.142 219.754 59.016 219.24 58.764C218.727 58.512 218.33 58.1806 218.05 57.77C217.78 57.3593 217.635 56.9206 217.616 56.454V56.426C217.616 56.3513 217.644 56.2906 217.7 56.244C217.756 56.1973 217.822 56.174 217.896 56.174H218.652C218.848 56.174 218.974 56.2766 219.03 56.482C219.161 56.9766 219.413 57.3453 219.786 57.588C220.16 57.8306 220.589 57.952 221.074 57.952C221.7 57.952 222.218 57.7653 222.628 57.392C223.048 57.0093 223.258 56.482 223.258 55.81C223.258 55.2033 223.048 54.7133 222.628 54.34C222.218 53.9666 221.7 53.78 221.074 53.78C220.738 53.78 220.468 53.8266 220.262 53.92C220.057 54.004 219.852 54.1253 219.646 54.284C219.534 54.368 219.436 54.4333 219.352 54.48C219.278 54.5173 219.194 54.536 219.1 54.536H218.372C218.288 54.536 218.214 54.508 218.148 54.452C218.083 54.3866 218.055 54.312 218.064 54.228L218.512 49.552C218.522 49.44 218.554 49.356 218.61 49.3C218.676 49.2346 218.76 49.202 218.862 49.202H223.748C223.842 49.202 223.916 49.2346 223.972 49.3C224.038 49.356 224.07 49.4306 224.07 49.524V50.07C224.07 50.1633 224.038 50.2426 223.972 50.308C223.916 50.364 223.842 50.392 223.748 50.392H219.716L219.45 53.15C219.954 52.8326 220.561 52.674 221.27 52.674C221.886 52.674 222.451 52.8 222.964 53.052C223.487 53.304 223.898 53.668 224.196 54.144C224.504 54.62 224.658 55.18 224.658 55.824C224.658 56.5146 224.504 57.112 224.196 57.616C223.898 58.1106 223.478 58.4886 222.936 58.75C222.395 59.0113 221.774 59.142 221.074 59.142ZM226.587 55.39C226.494 55.39 226.414 55.362 226.349 55.306C226.293 55.2406 226.265 55.1613 226.265 55.068V54.536C226.265 54.4426 226.293 54.368 226.349 54.312C226.414 54.2466 226.494 54.214 226.587 54.214H230.787C230.88 54.214 230.955 54.2466 231.011 54.312C231.076 54.368 231.109 54.4426 231.109 54.536V55.068C231.109 55.1613 231.076 55.2406 231.011 55.306C230.955 55.362 230.88 55.39 230.787 55.39H226.587ZM235.425 59.002C235.331 59.002 235.252 58.974 235.187 58.918C235.131 58.8526 235.103 58.7733 235.103 58.68V50.84L232.779 52.632C232.713 52.688 232.643 52.716 232.569 52.716C232.485 52.716 232.405 52.6693 232.331 52.576L231.967 52.114C231.92 52.0486 231.897 51.9833 231.897 51.918C231.897 51.806 231.943 51.7173 232.037 51.652L235.089 49.3C235.191 49.2346 235.313 49.202 235.453 49.202H236.167C236.26 49.202 236.335 49.2346 236.391 49.3C236.456 49.356 236.489 49.4306 236.489 49.524V58.68C236.489 58.7733 236.456 58.8526 236.391 58.918C236.335 58.974 236.26 59.002 236.167 59.002H235.425ZM241.637 59.142C240.928 59.142 240.316 59.016 239.803 58.764C239.29 58.512 238.893 58.1806 238.613 57.77C238.342 57.3593 238.198 56.9206 238.179 56.454V56.426C238.179 56.3513 238.207 56.2906 238.263 56.244C238.319 56.1973 238.384 56.174 238.459 56.174H239.215C239.411 56.174 239.537 56.2766 239.593 56.482C239.724 56.9766 239.976 57.3453 240.349 57.588C240.722 57.8306 241.152 57.952 241.637 57.952C242.262 57.952 242.78 57.7653 243.191 57.392C243.611 57.0093 243.821 56.482 243.821 55.81C243.821 55.2033 243.611 54.7133 243.191 54.34C242.78 53.9666 242.262 53.78 241.637 53.78C241.301 53.78 241.03 53.8266 240.825 53.92C240.62 54.004 240.414 54.1253 240.209 54.284C240.097 54.368 239.999 54.4333 239.915 54.48C239.84 54.5173 239.756 54.536 239.663 54.536H238.935C238.851 54.536 238.776 54.508 238.711 54.452C238.646 54.3866 238.618 54.312 238.627 54.228L239.075 49.552C239.084 49.44 239.117 49.356 239.173 49.3C239.238 49.2346 239.322 49.202 239.425 49.202H244.311C244.404 49.202 244.479 49.2346 244.535 49.3C244.6 49.356 244.633 49.4306 244.633 49.524V50.07C244.633 50.1633 244.6 50.2426 244.535 50.308C244.479 50.364 244.404 50.392 244.311 50.392H240.279L240.013 53.15C240.517 52.8326 241.124 52.674 241.833 52.674C242.449 52.674 243.014 52.8 243.527 53.052C244.05 53.304 244.46 53.668 244.759 54.144C245.067 54.62 245.221 55.18 245.221 55.824C245.221 56.5146 245.067 57.112 244.759 57.616C244.46 58.1106 244.04 58.4886 243.499 58.75C242.958 59.0113 242.337 59.142 241.637 59.142ZM250.651 59.002C250.558 59.002 250.478 58.974 250.413 58.918C250.357 58.8526 250.329 58.7733 250.329 58.68V52.044C250.329 51.9506 250.357 51.876 250.413 51.82C250.478 51.7546 250.558 51.722 250.651 51.722H251.281C251.374 51.722 251.449 51.7546 251.505 51.82C251.57 51.876 251.603 51.9506 251.603 52.044V52.534C252.088 51.8993 252.765 51.582 253.633 51.582C254.669 51.582 255.402 52.0113 255.831 52.87C256.055 52.478 256.372 52.1653 256.783 51.932C257.194 51.6986 257.656 51.582 258.169 51.582C258.934 51.582 259.56 51.8433 260.045 52.366C260.53 52.8886 260.773 53.6446 260.773 54.634V58.68C260.773 58.7733 260.74 58.8526 260.675 58.918C260.619 58.974 260.544 59.002 260.451 59.002H259.793C259.7 59.002 259.62 58.974 259.555 58.918C259.499 58.8526 259.471 58.7733 259.471 58.68V54.76C259.471 54.032 259.317 53.5093 259.009 53.192C258.71 52.8746 258.314 52.716 257.819 52.716C257.38 52.716 257.002 52.8793 256.685 53.206C256.368 53.5233 256.209 54.0413 256.209 54.76V58.68C256.209 58.7733 256.176 58.8526 256.111 58.918C256.055 58.974 255.98 59.002 255.887 59.002H255.229C255.136 59.002 255.056 58.974 254.991 58.918C254.935 58.8526 254.907 58.7733 254.907 58.68V54.76C254.907 54.032 254.748 53.5093 254.431 53.192C254.123 52.8746 253.731 52.716 253.255 52.716C252.816 52.716 252.438 52.8793 252.121 53.206C251.804 53.5233 251.645 54.0366 251.645 54.746V58.68C251.645 58.7733 251.612 58.8526 251.547 58.918C251.491 58.974 251.416 59.002 251.323 59.002H250.651ZM262.98 50.364C262.887 50.364 262.808 50.336 262.742 50.28C262.686 50.2146 262.658 50.1353 262.658 50.042V49.286C262.658 49.1926 262.686 49.1133 262.742 49.048C262.808 48.9826 262.887 48.95 262.98 48.95H263.862C263.956 48.95 264.035 48.9826 264.1 49.048C264.166 49.1133 264.198 49.1926 264.198 49.286V50.042C264.198 50.1353 264.166 50.2146 264.1 50.28C264.035 50.336 263.956 50.364 263.862 50.364H262.98ZM263.092 59.002C262.999 59.002 262.92 58.974 262.854 58.918C262.798 58.8526 262.77 58.7733 262.77 58.68V52.044C262.77 51.9506 262.798 51.876 262.854 51.82C262.92 51.7546 262.999 51.722 263.092 51.722H263.764C263.858 51.722 263.932 51.7546 263.988 51.82C264.054 51.876 264.086 51.9506 264.086 52.044V58.68C264.086 58.7733 264.054 58.8526 263.988 58.918C263.932 58.974 263.858 59.002 263.764 59.002H263.092ZM266.483 59.002C266.39 59.002 266.31 58.974 266.245 58.918C266.189 58.8526 266.161 58.7733 266.161 58.68V52.044C266.161 51.9506 266.189 51.876 266.245 51.82C266.31 51.7546 266.39 51.722 266.483 51.722H267.141C267.234 51.722 267.309 51.7546 267.365 51.82C267.43 51.876 267.463 51.9506 267.463 52.044V52.66C267.734 52.3146 268.051 52.0486 268.415 51.862C268.788 51.6753 269.25 51.582 269.801 51.582C270.697 51.582 271.392 51.8713 271.887 52.45C272.391 53.0193 272.643 53.78 272.643 54.732V58.68C272.643 58.7733 272.61 58.8526 272.545 58.918C272.489 58.974 272.414 59.002 272.321 59.002H271.621C271.528 59.002 271.448 58.974 271.383 58.918C271.327 58.8526 271.299 58.7733 271.299 58.68V54.802C271.299 54.1393 271.136 53.626 270.809 53.262C270.492 52.898 270.03 52.716 269.423 52.716C268.835 52.716 268.368 52.9026 268.023 53.276C267.678 53.64 267.505 54.1486 267.505 54.802V58.68C267.505 58.7733 267.472 58.8526 267.407 58.918C267.351 58.974 267.276 59.002 267.183 59.002H266.483Z" fill="#A2A0A0"/>
<path d="M217.994 116.002C217.901 116.002 217.822 115.974 217.756 115.918C217.7 115.853 217.672 115.773 217.672 115.68V115.232C217.672 115.017 217.789 114.812 218.022 114.616L220.99 111.648C221.709 111.051 222.204 110.565 222.474 110.192C222.745 109.809 222.88 109.408 222.88 108.988C222.88 108.447 222.726 108.022 222.418 107.714C222.12 107.406 221.681 107.252 221.102 107.252C220.561 107.252 220.127 107.415 219.8 107.742C219.474 108.059 219.273 108.484 219.198 109.016C219.18 109.128 219.133 109.212 219.058 109.268C218.993 109.315 218.918 109.338 218.834 109.338H218.106C218.022 109.338 217.952 109.315 217.896 109.268C217.84 109.212 217.812 109.147 217.812 109.072C217.831 108.568 217.966 108.087 218.218 107.63C218.47 107.163 218.839 106.785 219.324 106.496C219.819 106.197 220.412 106.048 221.102 106.048C222.157 106.048 222.95 106.323 223.482 106.874C224.024 107.415 224.294 108.106 224.294 108.946C224.294 109.534 224.145 110.066 223.846 110.542C223.557 111.009 223.104 111.513 222.488 112.054L219.8 114.784H224.168C224.271 114.784 224.35 114.817 224.406 114.882C224.472 114.938 224.504 115.013 224.504 115.106V115.68C224.504 115.773 224.472 115.853 224.406 115.918C224.341 115.974 224.262 116.002 224.168 116.002H217.994ZM229.641 116.142C228.437 116.142 227.555 115.792 226.995 115.092C226.435 114.392 226.137 113.473 226.099 112.334C226.09 112.082 226.085 111.676 226.085 111.116C226.085 110.537 226.09 110.117 226.099 109.856C226.127 108.736 226.426 107.826 226.995 107.126C227.565 106.417 228.447 106.062 229.641 106.062C230.845 106.062 231.732 106.417 232.301 107.126C232.871 107.826 233.169 108.736 233.197 109.856C233.216 110.379 233.225 110.799 233.225 111.116C233.225 111.424 233.216 111.83 233.197 112.334C233.16 113.473 232.861 114.392 232.301 115.092C231.741 115.792 230.855 116.142 229.641 116.142ZM229.641 114.938C230.341 114.938 230.869 114.705 231.223 114.238C231.587 113.771 231.779 113.113 231.797 112.264C231.816 111.723 231.825 111.331 231.825 111.088C231.825 110.827 231.816 110.444 231.797 109.94C231.779 109.1 231.592 108.442 231.237 107.966C230.883 107.49 230.351 107.252 229.641 107.252C228.941 107.252 228.409 107.49 228.045 107.966C227.691 108.442 227.504 109.1 227.485 109.94L227.471 111.088L227.485 112.264C227.504 113.113 227.691 113.771 228.045 114.238C228.409 114.705 228.941 114.938 229.641 114.938ZM235.378 112.39C235.285 112.39 235.205 112.362 235.14 112.306C235.084 112.241 235.056 112.161 235.056 112.068V111.536C235.056 111.443 235.084 111.368 235.14 111.312C235.205 111.247 235.285 111.214 235.378 111.214H239.578C239.671 111.214 239.746 111.247 239.802 111.312C239.867 111.368 239.9 111.443 239.9 111.536V112.068C239.9 112.161 239.867 112.241 239.802 112.306C239.746 112.362 239.671 112.39 239.578 112.39H235.378ZM245.183 116.142C244.437 116.142 243.788 115.993 243.237 115.694C242.687 115.386 242.267 114.975 241.977 114.462C241.688 113.949 241.543 113.389 241.543 112.782C241.543 112.287 241.641 111.821 241.837 111.382C242.043 110.934 242.271 110.537 242.523 110.192L245.183 106.482C245.193 106.473 245.221 106.44 245.267 106.384C245.305 106.328 245.356 106.286 245.421 106.258C245.487 106.221 245.561 106.202 245.645 106.202H246.387C246.471 106.202 246.537 106.235 246.583 106.3C246.639 106.356 246.667 106.426 246.667 106.51C246.667 106.575 246.649 106.636 246.611 106.692L244.567 109.548C244.773 109.483 245.039 109.45 245.365 109.45C246.037 109.459 246.63 109.613 247.143 109.912C247.666 110.211 248.067 110.612 248.347 111.116C248.637 111.62 248.781 112.171 248.781 112.768C248.781 113.365 248.637 113.925 248.347 114.448C248.067 114.961 247.652 115.372 247.101 115.68C246.56 115.988 245.921 116.142 245.183 116.142ZM245.169 114.952C245.571 114.952 245.939 114.868 246.275 114.7C246.621 114.532 246.891 114.285 247.087 113.958C247.293 113.622 247.395 113.225 247.395 112.768C247.395 112.32 247.293 111.933 247.087 111.606C246.891 111.279 246.621 111.032 246.275 110.864C245.939 110.696 245.571 110.612 245.169 110.612C244.777 110.612 244.409 110.696 244.063 110.864C243.727 111.032 243.457 111.279 243.251 111.606C243.046 111.933 242.943 112.32 242.943 112.768C242.943 113.225 243.046 113.622 243.251 113.958C243.457 114.285 243.727 114.532 244.063 114.7C244.399 114.868 244.768 114.952 245.169 114.952ZM253.745 116.142C252.541 116.142 251.659 115.792 251.099 115.092C250.539 114.392 250.24 113.473 250.203 112.334C250.193 112.082 250.189 111.676 250.189 111.116C250.189 110.537 250.193 110.117 250.203 109.856C250.231 108.736 250.529 107.826 251.099 107.126C251.668 106.417 252.55 106.062 253.745 106.062C254.949 106.062 255.835 106.417 256.405 107.126C256.974 107.826 257.273 108.736 257.301 109.856C257.319 110.379 257.329 110.799 257.329 111.116C257.329 111.424 257.319 111.83 257.301 112.334C257.263 113.473 256.965 114.392 256.405 115.092C255.845 115.792 254.958 116.142 253.745 116.142ZM253.745 114.938C254.445 114.938 254.972 114.705 255.327 114.238C255.691 113.771 255.882 113.113 255.901 112.264C255.919 111.723 255.929 111.331 255.929 111.088C255.929 110.827 255.919 110.444 255.901 109.94C255.882 109.1 255.695 108.442 255.341 107.966C254.986 107.49 254.454 107.252 253.745 107.252C253.045 107.252 252.513 107.49 252.149 107.966C251.794 108.442 251.607 109.1 251.589 109.94L251.575 111.088L251.589 112.264C251.607 113.113 251.794 113.771 252.149 114.238C252.513 114.705 253.045 114.938 253.745 114.938ZM262.983 116.002C262.89 116.002 262.81 115.974 262.745 115.918C262.689 115.853 262.661 115.773 262.661 115.68V109.044C262.661 108.951 262.689 108.876 262.745 108.82C262.81 108.755 262.89 108.722 262.983 108.722H263.613C263.706 108.722 263.781 108.755 263.837 108.82C263.902 108.876 263.935 108.951 263.935 109.044V109.534C264.42 108.899 265.097 108.582 265.965 108.582C267.001 108.582 267.734 109.011 268.163 109.87C268.387 109.478 268.704 109.165 269.115 108.932C269.526 108.699 269.988 108.582 270.501 108.582C271.266 108.582 271.892 108.843 272.377 109.366C272.862 109.889 273.105 110.645 273.105 111.634V115.68C273.105 115.773 273.072 115.853 273.007 115.918C272.951 115.974 272.876 116.002 272.783 116.002H272.125C272.032 116.002 271.952 115.974 271.887 115.918C271.831 115.853 271.803 115.773 271.803 115.68V111.76C271.803 111.032 271.649 110.509 271.341 110.192C271.042 109.875 270.646 109.716 270.151 109.716C269.712 109.716 269.334 109.879 269.017 110.206C268.7 110.523 268.541 111.041 268.541 111.76V115.68C268.541 115.773 268.508 115.853 268.443 115.918C268.387 115.974 268.312 116.002 268.219 116.002H267.561C267.468 116.002 267.388 115.974 267.323 115.918C267.267 115.853 267.239 115.773 267.239 115.68V111.76C267.239 111.032 267.08 110.509 266.763 110.192C266.455 109.875 266.063 109.716 265.587 109.716C265.148 109.716 264.77 109.879 264.453 110.206C264.136 110.523 263.977 111.037 263.977 111.746V115.68C263.977 115.773 263.944 115.853 263.879 115.918C263.823 115.974 263.748 116.002 263.655 116.002H262.983ZM275.313 107.364C275.219 107.364 275.14 107.336 275.075 107.28C275.019 107.215 274.991 107.135 274.991 107.042V106.286C274.991 106.193 275.019 106.113 275.075 106.048C275.14 105.983 275.219 105.95 275.313 105.95H276.195C276.288 105.95 276.367 105.983 276.433 106.048C276.498 106.113 276.531 106.193 276.531 106.286V107.042C276.531 107.135 276.498 107.215 276.433 107.28C276.367 107.336 276.288 107.364 276.195 107.364H275.313ZM275.425 116.002C275.331 116.002 275.252 115.974 275.187 115.918C275.131 115.853 275.103 115.773 275.103 115.68V109.044C275.103 108.951 275.131 108.876 275.187 108.82C275.252 108.755 275.331 108.722 275.425 108.722H276.097C276.19 108.722 276.265 108.755 276.321 108.82C276.386 108.876 276.419 108.951 276.419 109.044V115.68C276.419 115.773 276.386 115.853 276.321 115.918C276.265 115.974 276.19 116.002 276.097 116.002H275.425ZM278.815 116.002C278.722 116.002 278.642 115.974 278.577 115.918C278.521 115.853 278.493 115.773 278.493 115.68V109.044C278.493 108.951 278.521 108.876 278.577 108.82C278.642 108.755 278.722 108.722 278.815 108.722H279.473C279.566 108.722 279.641 108.755 279.697 108.82C279.762 108.876 279.795 108.951 279.795 109.044V109.66C280.066 109.315 280.383 109.049 280.747 108.862C281.12 108.675 281.582 108.582 282.133 108.582C283.029 108.582 283.724 108.871 284.219 109.45C284.723 110.019 284.975 110.78 284.975 111.732V115.68C284.975 115.773 284.942 115.853 284.877 115.918C284.821 115.974 284.746 116.002 284.653 116.002H283.953C283.86 116.002 283.78 115.974 283.715 115.918C283.659 115.853 283.631 115.773 283.631 115.68V111.802C283.631 111.139 283.468 110.626 283.141 110.262C282.824 109.898 282.362 109.716 281.755 109.716C281.167 109.716 280.7 109.903 280.355 110.276C280.01 110.64 279.837 111.149 279.837 111.802V115.68C279.837 115.773 279.804 115.853 279.739 115.918C279.683 115.974 279.608 116.002 279.515 116.002H278.815Z" fill="#A2A0A0"/>
<path d="M218.218 171.008C218.134 171.008 218.064 170.985 218.008 170.938C217.962 170.882 217.938 170.812 217.938 170.728V170.112C217.938 170.009 217.962 169.925 218.008 169.86C218.055 169.795 218.139 169.72 218.26 169.636L221.998 167.074L218.26 164.512C218.139 164.437 218.055 164.367 218.008 164.302C217.962 164.237 217.938 164.153 217.938 164.05V163.434C217.938 163.35 217.962 163.285 218.008 163.238C218.064 163.182 218.134 163.154 218.218 163.154C218.302 163.154 218.414 163.201 218.554 163.294L222.964 166.318C223.114 166.43 223.216 166.533 223.272 166.626C223.338 166.719 223.37 166.831 223.37 166.962V167.2C223.37 167.331 223.338 167.443 223.272 167.536C223.207 167.629 223.104 167.727 222.964 167.83L218.554 170.868C218.414 170.961 218.302 171.008 218.218 171.008ZM231.607 172.142C230.86 172.142 230.212 171.993 229.661 171.694C229.11 171.386 228.69 170.975 228.401 170.462C228.112 169.949 227.967 169.389 227.967 168.782C227.967 168.287 228.065 167.821 228.261 167.382C228.466 166.934 228.695 166.537 228.947 166.192L231.607 162.482C231.616 162.473 231.644 162.44 231.691 162.384C231.728 162.328 231.78 162.286 231.845 162.258C231.91 162.221 231.985 162.202 232.069 162.202H232.811C232.895 162.202 232.96 162.235 233.007 162.3C233.063 162.356 233.091 162.426 233.091 162.51C233.091 162.575 233.072 162.636 233.035 162.692L230.991 165.548C231.196 165.483 231.462 165.45 231.789 165.45C232.461 165.459 233.054 165.613 233.567 165.912C234.09 166.211 234.491 166.612 234.771 167.116C235.06 167.62 235.205 168.171 235.205 168.768C235.205 169.365 235.06 169.925 234.771 170.448C234.491 170.961 234.076 171.372 233.525 171.68C232.984 171.988 232.344 172.142 231.607 172.142ZM231.593 170.952C231.994 170.952 232.363 170.868 232.699 170.7C233.044 170.532 233.315 170.285 233.511 169.958C233.716 169.622 233.819 169.225 233.819 168.768C233.819 168.32 233.716 167.933 233.511 167.606C233.315 167.279 233.044 167.032 232.699 166.864C232.363 166.696 231.994 166.612 231.593 166.612C231.201 166.612 230.832 166.696 230.487 166.864C230.151 167.032 229.88 167.279 229.675 167.606C229.47 167.933 229.367 168.32 229.367 168.768C229.367 169.225 229.47 169.622 229.675 169.958C229.88 170.285 230.151 170.532 230.487 170.7C230.823 170.868 231.192 170.952 231.593 170.952ZM240.534 172.002C240.441 172.002 240.362 171.974 240.296 171.918C240.24 171.853 240.212 171.773 240.212 171.68V162.384C240.212 162.291 240.24 162.216 240.296 162.16C240.362 162.095 240.441 162.062 240.534 162.062H241.234C241.328 162.062 241.402 162.095 241.458 162.16C241.524 162.216 241.556 162.291 241.556 162.384V165.646C241.827 165.301 242.144 165.039 242.508 164.862C242.872 164.675 243.325 164.582 243.866 164.582C244.762 164.582 245.458 164.871 245.952 165.45C246.456 166.019 246.708 166.78 246.708 167.732V171.68C246.708 171.773 246.676 171.853 246.61 171.918C246.554 171.974 246.48 172.002 246.386 172.002H245.686C245.593 172.002 245.514 171.974 245.448 171.918C245.392 171.853 245.364 171.773 245.364 171.68V167.802C245.364 167.139 245.201 166.626 244.874 166.262C244.557 165.898 244.095 165.716 243.488 165.716C242.9 165.716 242.429 165.903 242.074 166.276C241.729 166.64 241.556 167.149 241.556 167.802V171.68C241.556 171.773 241.524 171.853 241.458 171.918C241.402 171.974 241.328 172.002 241.234 172.002H240.534ZM249.051 172.002C248.958 172.002 248.879 171.974 248.813 171.918C248.757 171.853 248.729 171.773 248.729 171.68V165.058C248.729 164.965 248.757 164.885 248.813 164.82C248.879 164.755 248.958 164.722 249.051 164.722H249.695C249.789 164.722 249.868 164.755 249.933 164.82C249.999 164.885 250.031 164.965 250.031 165.058V165.674C250.414 165.039 251.067 164.722 251.991 164.722H252.537C252.631 164.722 252.705 164.755 252.761 164.82C252.827 164.876 252.859 164.951 252.859 165.044V165.618C252.859 165.711 252.827 165.786 252.761 165.842C252.705 165.898 252.631 165.926 252.537 165.926H251.697C251.193 165.926 250.797 166.075 250.507 166.374C250.218 166.663 250.073 167.06 250.073 167.564V171.68C250.073 171.773 250.041 171.853 249.975 171.918C249.91 171.974 249.831 172.002 249.737 172.002H249.051ZM256.568 172.142C255.915 172.142 255.364 172.039 254.916 171.834C254.477 171.619 254.146 171.377 253.922 171.106C253.707 170.835 253.6 170.611 253.6 170.434C253.6 170.341 253.633 170.271 253.698 170.224C253.773 170.168 253.847 170.14 253.922 170.14H254.552C254.645 170.14 254.729 170.187 254.804 170.28C255.028 170.541 255.271 170.747 255.532 170.896C255.793 171.045 256.143 171.12 256.582 171.12C257.067 171.12 257.459 171.027 257.758 170.84C258.066 170.644 258.22 170.378 258.22 170.042C258.22 169.818 258.155 169.636 258.024 169.496C257.903 169.347 257.688 169.221 257.38 169.118C257.081 169.006 256.633 168.885 256.036 168.754C255.224 168.577 254.645 168.32 254.3 167.984C253.964 167.648 253.796 167.214 253.796 166.682C253.796 166.327 253.899 165.991 254.104 165.674C254.319 165.347 254.627 165.086 255.028 164.89C255.439 164.685 255.929 164.582 256.498 164.582C257.095 164.582 257.604 164.68 258.024 164.876C258.444 165.072 258.757 165.305 258.962 165.576C259.177 165.837 259.284 166.057 259.284 166.234C259.284 166.318 259.251 166.388 259.186 166.444C259.13 166.5 259.06 166.528 258.976 166.528H258.388C258.276 166.528 258.183 166.481 258.108 166.388C257.959 166.211 257.828 166.075 257.716 165.982C257.613 165.879 257.459 165.791 257.254 165.716C257.058 165.641 256.806 165.604 256.498 165.604C256.05 165.604 255.705 165.702 255.462 165.898C255.219 166.085 255.098 166.332 255.098 166.64C255.098 166.836 255.149 167.004 255.252 167.144C255.355 167.275 255.551 167.396 255.84 167.508C256.139 167.62 256.568 167.737 257.128 167.858C258.015 168.045 258.64 168.315 259.004 168.67C259.377 169.015 259.564 169.459 259.564 170C259.564 170.401 259.447 170.765 259.214 171.092C258.981 171.419 258.635 171.675 258.178 171.862C257.73 172.049 257.193 172.142 256.568 172.142Z" fill="#A2A0A0"/>
<path d="M219.212 39.212C218.82 39.212 218.533 39.149 218.351 39.023C218.183 38.911 218.078 38.757 218.036 38.561C217.994 38.365 217.973 38.155 217.973 37.931V25.394C217.973 25.156 217.994 24.946 218.036 24.764C218.092 24.568 218.204 24.414 218.372 24.302C218.554 24.19 218.841 24.134 219.233 24.134C219.625 24.134 219.905 24.197 220.073 24.323C220.255 24.435 220.367 24.589 220.409 24.785C220.465 24.967 220.493 25.177 220.493 25.415V30.161C220.773 29.839 221.13 29.545 221.564 29.279C222.012 28.999 222.551 28.859 223.181 28.859C224.035 28.859 224.798 29.069 225.47 29.489C226.142 29.895 226.674 30.462 227.066 31.19C227.458 31.918 227.654 32.772 227.654 33.752V37.952C227.654 38.176 227.633 38.386 227.591 38.582C227.549 38.764 227.437 38.911 227.255 39.023C227.087 39.135 226.807 39.191 226.415 39.191C226.023 39.191 225.736 39.135 225.554 39.023C225.372 38.911 225.26 38.764 225.218 38.582C225.176 38.386 225.155 38.162 225.155 37.91V33.731C225.155 33.241 225.071 32.814 224.903 32.45C224.735 32.086 224.483 31.806 224.147 31.61C223.825 31.4 223.419 31.295 222.929 31.295C222.271 31.295 221.718 31.491 221.27 31.883C220.822 32.261 220.563 32.751 220.493 33.353V37.952C220.493 38.176 220.465 38.386 220.409 38.582C220.367 38.778 220.255 38.932 220.073 39.044C219.905 39.156 219.618 39.212 219.212 39.212ZM234.52 39.338C233.61 39.338 232.812 39.191 232.126 38.897C231.454 38.603 230.887 38.204 230.425 37.7C229.977 37.182 229.634 36.608 229.396 35.978C229.172 35.334 229.06 34.669 229.06 33.983C229.06 32.975 229.291 32.079 229.753 31.295C230.215 30.511 230.852 29.895 231.664 29.447C232.49 28.999 233.435 28.775 234.499 28.775C235.255 28.775 235.92 28.894 236.494 29.132C237.068 29.37 237.544 29.685 237.922 30.077C238.314 30.455 238.608 30.875 238.804 31.337C239.014 31.799 239.119 32.247 239.119 32.681C239.119 33.423 238.937 33.962 238.573 34.298C238.223 34.634 237.782 34.802 237.25 34.802H231.706C231.72 35.278 231.867 35.691 232.147 36.041C232.441 36.391 232.805 36.664 233.239 36.86C233.687 37.042 234.142 37.133 234.604 37.133C234.954 37.133 235.262 37.112 235.528 37.07C235.808 37.028 236.046 36.979 236.242 36.923C236.438 36.853 236.606 36.783 236.746 36.713C236.9 36.643 237.04 36.58 237.166 36.524C237.292 36.468 237.411 36.433 237.523 36.419C237.677 36.405 237.831 36.44 237.985 36.524C238.139 36.608 238.265 36.755 238.363 36.965C238.447 37.105 238.503 37.238 238.531 37.364C238.573 37.476 238.594 37.588 238.594 37.7C238.594 37.98 238.426 38.246 238.09 38.498C237.754 38.736 237.278 38.932 236.662 39.086C236.06 39.254 235.346 39.338 234.52 39.338ZM231.706 33.311H236.011C236.249 33.311 236.431 33.276 236.557 33.206C236.683 33.122 236.746 32.954 236.746 32.702C236.746 32.38 236.648 32.093 236.452 31.841C236.256 31.575 235.99 31.372 235.654 31.232C235.318 31.078 234.926 31.001 234.478 31.001C233.96 31.001 233.491 31.106 233.071 31.316C232.651 31.512 232.315 31.785 232.063 32.135C231.825 32.485 231.706 32.877 231.706 33.311ZM249.452 39.17C249.046 39.17 248.745 39.093 248.549 38.939C248.353 38.785 248.255 38.575 248.255 38.309L248.402 37.616C248.29 37.798 248.101 38.015 247.835 38.267C247.569 38.505 247.219 38.722 246.785 38.918C246.351 39.1 245.826 39.191 245.21 39.191C244.552 39.191 243.929 39.058 243.341 38.792C242.767 38.512 242.256 38.134 241.808 37.658C241.374 37.168 241.024 36.615 240.758 35.999C240.506 35.369 240.38 34.697 240.38 33.983C240.38 33.297 240.506 32.653 240.758 32.051C241.024 31.435 241.381 30.889 241.829 30.413C242.277 29.937 242.788 29.566 243.362 29.3C243.95 29.02 244.566 28.88 245.21 28.88C245.784 28.88 246.267 28.957 246.659 29.111C247.065 29.265 247.408 29.461 247.688 29.699C247.968 29.923 248.199 30.161 248.381 30.413L248.255 29.804C248.255 29.496 248.353 29.265 248.549 29.111C248.745 28.943 249.053 28.859 249.473 28.859C249.865 28.859 250.145 28.922 250.313 29.048C250.481 29.16 250.586 29.321 250.628 29.531C250.67 29.727 250.691 29.951 250.691 30.203V37.889C250.691 38.127 250.67 38.344 250.628 38.54C250.586 38.736 250.474 38.89 250.292 39.002C250.124 39.114 249.844 39.17 249.452 39.17ZM245.588 36.734C246.064 36.734 246.491 36.615 246.869 36.377C247.247 36.139 247.548 35.817 247.772 35.411C248.01 34.991 248.129 34.529 248.129 34.025C248.129 33.479 248.01 33.003 247.772 32.597C247.534 32.191 247.219 31.876 246.827 31.652C246.449 31.414 246.022 31.295 245.546 31.295C245.028 31.295 244.566 31.421 244.16 31.673C243.754 31.911 243.432 32.24 243.194 32.66C242.97 33.066 242.858 33.528 242.858 34.046C242.858 34.55 242.977 35.005 243.215 35.411C243.453 35.817 243.775 36.139 244.181 36.377C244.601 36.615 245.07 36.734 245.588 36.734ZM257.25 39.191C256.606 39.191 255.997 39.058 255.423 38.792C254.849 38.526 254.345 38.162 253.911 37.7C253.477 37.224 253.134 36.671 252.882 36.041C252.63 35.397 252.504 34.711 252.504 33.983C252.504 33.283 252.63 32.625 252.882 32.009C253.134 31.379 253.477 30.833 253.911 30.371C254.359 29.895 254.87 29.524 255.444 29.258C256.018 28.992 256.62 28.859 257.25 28.859C257.922 28.859 258.524 28.992 259.056 29.258C259.588 29.524 260.036 29.895 260.4 30.371C260.778 30.833 261.065 31.379 261.261 32.009C261.457 32.625 261.562 33.29 261.576 34.004C261.576 34.718 261.478 35.39 261.282 36.02C261.1 36.636 260.82 37.182 260.442 37.658C260.078 38.134 259.623 38.512 259.077 38.792C258.545 39.058 257.936 39.191 257.25 39.191ZM257.586 36.734C258.076 36.734 258.51 36.622 258.888 36.398C259.28 36.16 259.588 35.838 259.812 35.432C260.05 35.026 260.169 34.564 260.169 34.046C260.169 33.514 260.05 33.045 259.812 32.639C259.588 32.233 259.28 31.911 258.888 31.673C258.51 31.435 258.076 31.316 257.586 31.316C257.096 31.316 256.655 31.435 256.263 31.673C255.871 31.897 255.556 32.219 255.318 32.639C255.094 33.045 254.982 33.514 254.982 34.046C254.982 34.564 255.094 35.026 255.318 35.432C255.556 35.838 255.871 36.16 256.263 36.398C256.669 36.622 257.11 36.734 257.586 36.734ZM261.471 39.191C261.079 39.191 260.792 39.128 260.61 39.002C260.428 38.862 260.309 38.645 260.253 38.351V25.415C260.253 25.177 260.267 24.967 260.295 24.785C260.337 24.589 260.442 24.435 260.61 24.323C260.792 24.197 261.072 24.134 261.45 24.134C261.856 24.134 262.143 24.19 262.311 24.302C262.479 24.414 262.584 24.568 262.626 24.764C262.682 24.946 262.71 25.156 262.71 25.394V37.91C262.71 38.148 262.689 38.365 262.647 38.561C262.605 38.757 262.493 38.911 262.311 39.023C262.143 39.135 261.863 39.191 261.471 39.191Z" fill="#1100DF"/>
<path d="M219.212 94.212C218.82 94.212 218.533 94.149 218.351 94.023C218.183 93.911 218.078 93.757 218.036 93.561C217.994 93.365 217.973 93.155 217.973 92.931V80.394C217.973 80.156 217.994 79.946 218.036 79.764C218.092 79.568 218.204 79.414 218.372 79.302C218.554 79.19 218.841 79.134 219.233 79.134C219.625 79.134 219.905 79.197 220.073 79.323C220.255 79.435 220.367 79.589 220.409 79.785C220.465 79.967 220.493 80.177 220.493 80.415V85.161C220.773 84.839 221.13 84.545 221.564 84.279C222.012 83.999 222.551 83.859 223.181 83.859C224.035 83.859 224.798 84.069 225.47 84.489C226.142 84.895 226.674 85.462 227.066 86.19C227.458 86.918 227.654 87.772 227.654 88.752V92.952C227.654 93.176 227.633 93.386 227.591 93.582C227.549 93.764 227.437 93.911 227.255 94.023C227.087 94.135 226.807 94.191 226.415 94.191C226.023 94.191 225.736 94.135 225.554 94.023C225.372 93.911 225.26 93.764 225.218 93.582C225.176 93.386 225.155 93.162 225.155 92.91V88.731C225.155 88.241 225.071 87.814 224.903 87.45C224.735 87.086 224.483 86.806 224.147 86.61C223.825 86.4 223.419 86.295 222.929 86.295C222.271 86.295 221.718 86.491 221.27 86.883C220.822 87.261 220.563 87.751 220.493 88.353V92.952C220.493 93.176 220.465 93.386 220.409 93.582C220.367 93.778 220.255 93.932 220.073 94.044C219.905 94.156 219.618 94.212 219.212 94.212ZM234.52 94.338C233.61 94.338 232.812 94.191 232.126 93.897C231.454 93.603 230.887 93.204 230.425 92.7C229.977 92.182 229.634 91.608 229.396 90.978C229.172 90.334 229.06 89.669 229.06 88.983C229.06 87.975 229.291 87.079 229.753 86.295C230.215 85.511 230.852 84.895 231.664 84.447C232.49 83.999 233.435 83.775 234.499 83.775C235.255 83.775 235.92 83.894 236.494 84.132C237.068 84.37 237.544 84.685 237.922 85.077C238.314 85.455 238.608 85.875 238.804 86.337C239.014 86.799 239.119 87.247 239.119 87.681C239.119 88.423 238.937 88.962 238.573 89.298C238.223 89.634 237.782 89.802 237.25 89.802H231.706C231.72 90.278 231.867 90.691 232.147 91.041C232.441 91.391 232.805 91.664 233.239 91.86C233.687 92.042 234.142 92.133 234.604 92.133C234.954 92.133 235.262 92.112 235.528 92.07C235.808 92.028 236.046 91.979 236.242 91.923C236.438 91.853 236.606 91.783 236.746 91.713C236.9 91.643 237.04 91.58 237.166 91.524C237.292 91.468 237.411 91.433 237.523 91.419C237.677 91.405 237.831 91.44 237.985 91.524C238.139 91.608 238.265 91.755 238.363 91.965C238.447 92.105 238.503 92.238 238.531 92.364C238.573 92.476 238.594 92.588 238.594 92.7C238.594 92.98 238.426 93.246 238.09 93.498C237.754 93.736 237.278 93.932 236.662 94.086C236.06 94.254 235.346 94.338 234.52 94.338ZM231.706 88.311H236.011C236.249 88.311 236.431 88.276 236.557 88.206C236.683 88.122 236.746 87.954 236.746 87.702C236.746 87.38 236.648 87.093 236.452 86.841C236.256 86.575 235.99 86.372 235.654 86.232C235.318 86.078 234.926 86.001 234.478 86.001C233.96 86.001 233.491 86.106 233.071 86.316C232.651 86.512 232.315 86.785 232.063 87.135C231.825 87.485 231.706 87.877 231.706 88.311ZM249.452 94.17C249.046 94.17 248.745 94.093 248.549 93.939C248.353 93.785 248.255 93.575 248.255 93.309L248.402 92.616C248.29 92.798 248.101 93.015 247.835 93.267C247.569 93.505 247.219 93.722 246.785 93.918C246.351 94.1 245.826 94.191 245.21 94.191C244.552 94.191 243.929 94.058 243.341 93.792C242.767 93.512 242.256 93.134 241.808 92.658C241.374 92.168 241.024 91.615 240.758 90.999C240.506 90.369 240.38 89.697 240.38 88.983C240.38 88.297 240.506 87.653 240.758 87.051C241.024 86.435 241.381 85.889 241.829 85.413C242.277 84.937 242.788 84.566 243.362 84.3C243.95 84.02 244.566 83.88 245.21 83.88C245.784 83.88 246.267 83.957 246.659 84.111C247.065 84.265 247.408 84.461 247.688 84.699C247.968 84.923 248.199 85.161 248.381 85.413L248.255 84.804C248.255 84.496 248.353 84.265 248.549 84.111C248.745 83.943 249.053 83.859 249.473 83.859C249.865 83.859 250.145 83.922 250.313 84.048C250.481 84.16 250.586 84.321 250.628 84.531C250.67 84.727 250.691 84.951 250.691 85.203V92.889C250.691 93.127 250.67 93.344 250.628 93.54C250.586 93.736 250.474 93.89 250.292 94.002C250.124 94.114 249.844 94.17 249.452 94.17ZM245.588 91.734C246.064 91.734 246.491 91.615 246.869 91.377C247.247 91.139 247.548 90.817 247.772 90.411C248.01 89.991 248.129 89.529 248.129 89.025C248.129 88.479 248.01 88.003 247.772 87.597C247.534 87.191 247.219 86.876 246.827 86.652C246.449 86.414 246.022 86.295 245.546 86.295C245.028 86.295 244.566 86.421 244.16 86.673C243.754 86.911 243.432 87.24 243.194 87.66C242.97 88.066 242.858 88.528 242.858 89.046C242.858 89.55 242.977 90.005 243.215 90.411C243.453 90.817 243.775 91.139 244.181 91.377C244.601 91.615 245.07 91.734 245.588 91.734ZM254.037 94.212C253.659 94.212 253.379 94.149 253.197 94.023C253.029 93.911 252.924 93.757 252.882 93.561C252.84 93.365 252.819 93.148 252.819 92.91V85.119C252.819 84.867 252.84 84.65 252.882 84.468C252.924 84.272 253.029 84.125 253.197 84.027C253.379 83.915 253.666 83.859 254.058 83.859C254.436 83.859 254.709 83.908 254.877 84.006C255.059 84.104 255.171 84.23 255.213 84.384C255.269 84.524 255.297 84.664 255.297 84.804L255.129 85.182C255.199 85.07 255.297 84.937 255.423 84.783C255.549 84.615 255.717 84.454 255.927 84.3C256.137 84.132 256.389 83.999 256.683 83.901C256.977 83.789 257.327 83.733 257.733 83.733C257.901 83.733 258.076 83.754 258.258 83.796C258.454 83.824 258.643 83.873 258.825 83.943C259.021 83.999 259.196 84.076 259.35 84.174C259.504 84.272 259.623 84.391 259.707 84.531C259.791 84.657 259.833 84.804 259.833 84.972C259.833 85.42 259.721 85.798 259.497 86.106C259.273 86.414 259.007 86.568 258.699 86.568C258.489 86.568 258.335 86.547 258.237 86.505C258.139 86.463 258.055 86.414 257.985 86.358C257.929 86.302 257.838 86.253 257.712 86.211C257.6 86.169 257.418 86.148 257.166 86.148C256.956 86.148 256.739 86.183 256.515 86.253C256.305 86.323 256.109 86.428 255.927 86.568C255.745 86.708 255.598 86.89 255.486 87.114C255.374 87.324 255.318 87.569 255.318 87.849V92.952C255.318 93.19 255.297 93.407 255.255 93.603C255.213 93.785 255.101 93.932 254.919 94.044C254.737 94.156 254.443 94.212 254.037 94.212ZM266.35 94.212C265.664 94.212 265.076 94.142 264.586 94.002C264.096 93.862 263.697 93.645 263.389 93.351C263.081 93.057 262.85 92.679 262.696 92.217C262.556 91.741 262.486 91.181 262.486 90.537V81.633C262.486 81.381 262.507 81.164 262.549 80.982C262.605 80.8 262.717 80.66 262.885 80.562C263.067 80.45 263.347 80.394 263.725 80.394C264.117 80.394 264.397 80.45 264.565 80.562C264.747 80.674 264.859 80.828 264.901 81.024C264.957 81.206 264.985 81.409 264.985 81.633V90.453C264.985 90.747 265.006 90.985 265.048 91.167C265.104 91.349 265.181 91.489 265.279 91.587C265.391 91.671 265.531 91.734 265.699 91.776C265.881 91.804 266.098 91.818 266.35 91.818C266.616 91.818 266.84 91.839 267.022 91.881C267.218 91.923 267.365 92.028 267.463 92.196C267.561 92.35 267.61 92.609 267.61 92.973C267.61 93.365 267.547 93.652 267.421 93.834C267.309 94.002 267.155 94.107 266.959 94.149C266.777 94.191 266.574 94.212 266.35 94.212ZM261.625 84.069L263.788 84.09L266.686 84.006C266.924 84.006 267.134 84.034 267.316 84.09C267.512 84.132 267.666 84.244 267.778 84.426C267.89 84.594 267.946 84.874 267.946 85.266C267.946 85.63 267.89 85.903 267.778 86.085C267.666 86.267 267.519 86.386 267.337 86.442C267.155 86.484 266.945 86.505 266.707 86.505L263.893 86.463L261.562 86.484C261.212 86.47 260.967 86.372 260.827 86.19C260.701 85.994 260.638 85.679 260.638 85.245C260.638 84.839 260.715 84.545 260.869 84.363C261.037 84.167 261.289 84.069 261.625 84.069Z" fill="#1100DF"/>
<path d="M223.475 152.191C222.789 152.191 222.173 152.058 221.627 151.792C221.095 151.512 220.64 151.134 220.262 150.658C219.898 150.182 219.618 149.636 219.422 149.02C219.24 148.39 219.149 147.718 219.149 147.004C219.163 146.29 219.268 145.625 219.464 145.009C219.66 144.379 219.94 143.833 220.304 143.371C220.682 142.895 221.137 142.524 221.669 142.258C222.201 141.992 222.803 141.859 223.475 141.859C224.119 141.859 224.721 141.992 225.281 142.258C225.855 142.524 226.359 142.895 226.793 143.371C227.241 143.833 227.591 144.379 227.843 145.009C228.095 145.625 228.221 146.283 228.221 146.983C228.221 147.711 228.095 148.397 227.843 149.041C227.591 149.671 227.248 150.224 226.814 150.7C226.38 151.162 225.876 151.526 225.302 151.792C224.728 152.058 224.119 152.191 223.475 152.191ZM223.139 149.734C223.629 149.734 224.07 149.622 224.462 149.398C224.854 149.16 225.162 148.838 225.386 148.432C225.624 148.026 225.743 147.564 225.743 147.046C225.743 146.514 225.624 146.045 225.386 145.639C225.162 145.219 224.854 144.897 224.462 144.673C224.07 144.435 223.629 144.316 223.139 144.316C222.663 144.316 222.229 144.435 221.837 144.673C221.445 144.911 221.13 145.233 220.892 145.639C220.668 146.045 220.556 146.514 220.556 147.046C220.556 147.564 220.668 148.026 220.892 148.432C221.13 148.838 221.445 149.16 221.837 149.398C222.229 149.622 222.663 149.734 223.139 149.734ZM219.254 152.212C218.876 152.212 218.596 152.149 218.414 152.023C218.232 151.911 218.12 151.764 218.078 151.582C218.036 151.386 218.015 151.169 218.015 150.931V138.415C218.015 138.177 218.036 137.967 218.078 137.785C218.12 137.589 218.232 137.435 218.414 137.323C218.596 137.211 218.876 137.155 219.254 137.155C219.646 137.155 219.926 137.211 220.094 137.323C220.262 137.435 220.367 137.589 220.409 137.785C220.451 137.981 220.472 138.191 220.472 138.415V151.351C220.416 151.659 220.297 151.876 220.115 152.002C219.947 152.142 219.66 152.212 219.254 152.212ZM238.521 152.17C238.115 152.17 237.814 152.093 237.618 151.939C237.422 151.785 237.324 151.575 237.324 151.309L237.471 150.616C237.359 150.798 237.17 151.015 236.904 151.267C236.638 151.505 236.288 151.722 235.854 151.918C235.42 152.1 234.895 152.191 234.279 152.191C233.621 152.191 232.998 152.058 232.41 151.792C231.836 151.512 231.325 151.134 230.877 150.658C230.443 150.168 230.093 149.615 229.827 148.999C229.575 148.369 229.449 147.697 229.449 146.983C229.449 146.297 229.575 145.653 229.827 145.051C230.093 144.435 230.45 143.889 230.898 143.413C231.346 142.937 231.857 142.566 232.431 142.3C233.019 142.02 233.635 141.88 234.279 141.88C234.853 141.88 235.336 141.957 235.728 142.111C236.134 142.265 236.477 142.461 236.757 142.699C237.037 142.923 237.268 143.161 237.45 143.413L237.324 142.804C237.324 142.496 237.422 142.265 237.618 142.111C237.814 141.943 238.122 141.859 238.542 141.859C238.934 141.859 239.214 141.922 239.382 142.048C239.55 142.16 239.655 142.321 239.697 142.531C239.739 142.727 239.76 142.951 239.76 143.203V150.889C239.76 151.127 239.739 151.344 239.697 151.54C239.655 151.736 239.543 151.89 239.361 152.002C239.193 152.114 238.913 152.17 238.521 152.17ZM234.657 149.734C235.133 149.734 235.56 149.615 235.938 149.377C236.316 149.139 236.617 148.817 236.841 148.411C237.079 147.991 237.198 147.529 237.198 147.025C237.198 146.479 237.079 146.003 236.841 145.597C236.603 145.191 236.288 144.876 235.896 144.652C235.518 144.414 235.091 144.295 234.615 144.295C234.097 144.295 233.635 144.421 233.229 144.673C232.823 144.911 232.501 145.24 232.263 145.66C232.039 146.066 231.927 146.528 231.927 147.046C231.927 147.55 232.046 148.005 232.284 148.411C232.522 148.817 232.844 149.139 233.25 149.377C233.67 149.615 234.139 149.734 234.657 149.734ZM245.459 152.338C245.095 152.338 244.71 152.296 244.304 152.212C243.898 152.142 243.506 152.037 243.128 151.897C242.75 151.743 242.421 151.568 242.141 151.372C241.875 151.162 241.707 150.931 241.637 150.679C241.581 150.539 241.56 150.406 241.574 150.28C241.588 150.14 241.63 150 241.7 149.86C241.77 149.706 241.875 149.552 242.015 149.398C242.141 149.244 242.267 149.16 242.393 149.146C242.533 149.118 242.708 149.16 242.918 149.272C243.1 149.342 243.296 149.433 243.506 149.545C243.73 149.657 243.954 149.769 244.178 149.881C244.416 149.993 244.654 150.084 244.892 150.154C245.144 150.224 245.389 150.259 245.627 150.259C246.145 150.259 246.558 150.175 246.866 150.007C247.174 149.825 247.328 149.573 247.328 149.251C247.328 149.069 247.279 148.908 247.181 148.768C247.083 148.628 246.95 148.516 246.782 148.432C246.628 148.334 246.439 148.25 246.215 148.18C246.005 148.096 245.774 148.026 245.522 147.97C245.284 147.9 245.032 147.823 244.766 147.739C244.416 147.641 244.066 147.522 243.716 147.382C243.366 147.242 243.051 147.06 242.771 146.836C242.505 146.612 242.288 146.332 242.12 145.996C241.952 145.66 241.868 145.24 241.868 144.736C241.868 144.106 242.015 143.574 242.309 143.14C242.617 142.692 243.058 142.349 243.632 142.111C244.206 141.873 244.899 141.754 245.711 141.754C245.991 141.754 246.257 141.775 246.509 141.817C246.775 141.859 247.027 141.922 247.265 142.006C247.517 142.076 247.755 142.167 247.979 142.279C248.217 142.391 248.441 142.517 248.651 142.657C249.001 142.853 249.183 143.084 249.197 143.35C249.211 143.602 249.113 143.875 248.903 144.169C248.749 144.365 248.595 144.505 248.441 144.589C248.287 144.659 248.126 144.659 247.958 144.589C247.734 144.477 247.489 144.358 247.223 144.232C246.971 144.092 246.705 143.973 246.425 143.875C246.159 143.777 245.879 143.728 245.585 143.728C245.305 143.728 245.053 143.77 244.829 143.854C244.605 143.938 244.437 144.057 244.325 144.211C244.213 144.365 244.157 144.547 244.157 144.757C244.157 144.953 244.213 145.114 244.325 145.24C244.437 145.366 244.584 145.471 244.766 145.555C244.948 145.639 245.165 145.716 245.417 145.786C245.669 145.842 245.935 145.898 246.215 145.954C246.607 146.038 247.006 146.143 247.412 146.269C247.818 146.395 248.189 146.57 248.525 146.794C248.875 147.018 249.155 147.319 249.365 147.697C249.575 148.061 249.68 148.537 249.68 149.125C249.68 150.147 249.302 150.938 248.546 151.498C247.804 152.058 246.775 152.338 245.459 152.338ZM256.504 152.338C255.594 152.338 254.796 152.191 254.11 151.897C253.438 151.603 252.871 151.204 252.409 150.7C251.961 150.182 251.618 149.608 251.38 148.978C251.156 148.334 251.044 147.669 251.044 146.983C251.044 145.975 251.275 145.079 251.737 144.295C252.199 143.511 252.836 142.895 253.648 142.447C254.474 141.999 255.419 141.775 256.483 141.775C257.239 141.775 257.904 141.894 258.478 142.132C259.052 142.37 259.528 142.685 259.906 143.077C260.298 143.455 260.592 143.875 260.788 144.337C260.998 144.799 261.103 145.247 261.103 145.681C261.103 146.423 260.921 146.962 260.557 147.298C260.207 147.634 259.766 147.802 259.234 147.802H253.69C253.704 148.278 253.851 148.691 254.131 149.041C254.425 149.391 254.789 149.664 255.223 149.86C255.671 150.042 256.126 150.133 256.588 150.133C256.938 150.133 257.246 150.112 257.512 150.07C257.792 150.028 258.03 149.979 258.226 149.923C258.422 149.853 258.59 149.783 258.73 149.713C258.884 149.643 259.024 149.58 259.15 149.524C259.276 149.468 259.395 149.433 259.507 149.419C259.661 149.405 259.815 149.44 259.969 149.524C260.123 149.608 260.249 149.755 260.347 149.965C260.431 150.105 260.487 150.238 260.515 150.364C260.557 150.476 260.578 150.588 260.578 150.7C260.578 150.98 260.41 151.246 260.074 151.498C259.738 151.736 259.262 151.932 258.646 152.086C258.044 152.254 257.33 152.338 256.504 152.338ZM253.69 146.311H257.995C258.233 146.311 258.415 146.276 258.541 146.206C258.667 146.122 258.73 145.954 258.73 145.702C258.73 145.38 258.632 145.093 258.436 144.841C258.24 144.575 257.974 144.372 257.638 144.232C257.302 144.078 256.91 144.001 256.462 144.001C255.944 144.001 255.475 144.106 255.055 144.316C254.635 144.512 254.299 144.785 254.047 145.135C253.809 145.485 253.69 145.877 253.69 146.311Z" fill="#1100DF"/>
<g opacity="0.8">
<path opacity="0.8" d="M2.74 168.024C2.27469 168.829 2.02955 169.743 2.0293 170.673C2.02904 171.603 2.27359 172.517 2.73845 173.322C3.20332 174.127 3.87215 174.796 4.67747 175.261C5.4828 175.726 6.39626 175.97 7.32609 175.97H195.899C196.829 175.97 197.742 175.726 198.548 175.261C199.353 174.796 200.022 174.127 200.487 173.322C200.952 172.517 201.196 171.603 201.196 170.673C201.196 169.743 200.951 168.829 200.485 168.024L172.743 119.957H30.487L2.74 168.024Z" fill="#8EECF5"/>
</g>
<g opacity="0.25">
<path opacity="0.25" d="M106.203 4.67885C105.739 3.87348 105.07 3.20463 104.265 2.73961C103.46 2.27459 102.547 2.02979 101.617 2.02979C100.687 2.02979 99.7741 2.27459 98.9691 2.73961C98.164 3.20463 97.4956 3.87348 97.0309 4.67885L66.1919 58.1055H137.06L106.203 4.67885Z" fill="#8EECF5"/>
</g>
<g opacity="0.5">
<path opacity="0.5" d="M66.2235 58.1055L30.4869 119.956H172.878L137.142 58.1055H66.2235Z" fill="#8EECF5"/>
</g>
<path d="M195.899 178.002H7.32606C6.0401 178.001 4.77696 177.662 3.66347 177.018C2.54998 176.375 1.62527 175.45 0.982238 174.336C0.339205 173.222 0.000487585 171.959 5.25987e-07 170.673C-0.000486533 169.387 0.337294 168.123 0.979483 167.009L95.2706 3.66321C95.9136 2.54944 96.8384 1.62454 97.952 0.981522C99.0657 0.338502 100.329 0 101.615 0C102.901 0 104.164 0.338502 105.278 0.981522C106.391 1.62454 107.316 2.54944 107.959 3.66321L202.25 167.009C202.892 168.123 203.23 169.387 203.23 170.673C203.229 171.959 202.89 173.222 202.247 174.336C201.604 175.45 200.68 176.375 199.566 177.018C198.453 177.662 197.19 178.001 195.904 178.002H195.899ZM101.617 4.06502C101.043 4.06133 100.479 4.21032 99.9814 4.49671C99.4841 4.7831 99.0718 5.19658 98.7869 5.69481L4.50939 169.04C4.22387 169.537 4.07383 170.099 4.0742 170.672C4.07457 171.245 4.22532 171.807 4.51148 172.303C4.79765 172.8 5.2091 173.212 5.70465 173.499C6.2002 173.786 6.76248 173.937 7.3351 173.939H195.899C196.472 173.938 197.035 173.787 197.531 173.5C198.027 173.214 198.439 172.802 198.726 172.305C199.013 171.809 199.164 171.246 199.164 170.673C199.165 170.1 199.015 169.537 198.729 169.04L104.438 5.69481C104.154 5.19792 103.743 4.78528 103.248 4.49897C102.752 4.21266 102.189 4.06293 101.617 4.06502V4.06502Z" fill="#1100DF"/>
<line x1="103.986" y1="34.002" x2="200.986" y2="34.0019" stroke="#1100DF" stroke-width="4" stroke-linecap="round" stroke-dasharray="0.5 8"/>
<line x1="128.986" y1="88.002" x2="200.986" y2="88.0019" stroke="#1100DF" stroke-width="4" stroke-linecap="round" stroke-dasharray="0.5 8"/>
<line x1="161.986" y1="146.002" x2="200.986" y2="146.002" stroke="#1100DF" stroke-width="4" stroke-linecap="round" stroke-dasharray="0.5 8"/>
</svg>
