<svg width="70" height="69" viewBox="0 0 70 69" fill="none" xmlns="http://www.w3.org/2000/svg">
<path d="M35.0373 68.3848C28.2959 68.3848 21.7058 66.3858 16.1006 62.6404C10.4953 58.8951 6.1265 53.5717 3.54667 47.3435C0.96684 41.1152 0.291861 34.2618 1.60705 27.6499C2.92223 21.038 6.16847 14.9645 10.9354 10.1976C15.7023 5.43074 21.7757 2.1845 28.3876 0.869314C34.9994 -0.445871 41.8528 0.229108 48.0811 2.80894C54.3094 5.38877 59.6328 9.75746 63.3781 15.3627C67.1234 20.968 69.1225 27.5581 69.1225 34.2996C69.1131 43.3366 65.519 52.0009 59.1288 58.3911C52.7386 64.7812 44.0744 68.3754 35.0373 68.3848V68.3848ZM35.0373 5.1851C29.279 5.1851 23.65 6.89257 18.8622 10.0917C14.0744 13.2908 10.3427 17.838 8.13906 23.158C5.93545 28.478 5.35889 34.3319 6.48228 39.9796C7.60567 45.6272 10.3786 50.8149 14.4503 54.8866C18.522 58.9584 23.7097 61.7312 29.3574 62.8545C35.005 63.9779 40.859 63.4015 46.1789 61.1979C51.4989 58.9943 56.0459 55.2625 59.245 50.4746C62.4442 45.6868 64.1517 40.0578 64.1517 34.2996C64.1517 26.5779 61.0843 19.1725 55.6243 13.7125C50.1643 8.25245 42.7589 5.1851 35.0373 5.1851Z" fill="#A2A0A0"/>
</svg>
