<svg width="62" height="52" viewBox="0 0 62 52" fill="none" xmlns="http://www.w3.org/2000/svg">
<path d="M30.7814 51.9662C30.3524 51.9663 29.9308 51.8547 29.5584 51.6425C19.5838 46.0133 11.3411 38.9768 5.72815 31.3704C-1.38346 21.7304 -1.21381 9.77539 6.11695 3.54811C7.84901 2.05898 9.926 1.02214 12.1608 0.530805C14.3957 0.0394737 16.7182 0.109083 18.9193 0.733516C22.4539 1.76084 27.1408 4.63176 30.8026 12.203C34.4645 4.63176 39.116 1.76084 42.6859 0.733516C44.887 0.109083 47.2095 0.0394737 49.4443 0.530805C51.6792 1.02214 53.7562 2.05898 55.4882 3.54811C62.819 9.77539 62.9887 21.7304 55.877 31.3704C50.2641 38.9839 42.0214 45.9922 32.0468 51.6425C31.662 51.862 31.2248 51.9738 30.7814 51.9662V51.9662ZM15.1373 5.13132C12.9951 5.14146 10.9269 5.91255 9.30517 7.30565C4.71019 11.2109 3.59325 20.1893 9.69396 28.4642C14.6777 35.2192 21.9449 41.4959 30.7814 46.6747C39.6179 41.4959 46.885 35.2192 51.8688 28.4642C57.9695 20.1893 56.8172 11.2109 52.2576 7.30565C51.1473 6.34562 49.815 5.67466 48.3802 5.35292C46.9454 5.03119 45.4528 5.06863 44.0361 5.46201C39.4836 6.7708 35.6238 11.7948 33.1637 19.6686C32.991 20.2089 32.6397 20.6752 32.167 20.9916C31.7478 21.2688 31.2564 21.4179 30.7531 21.4207V21.4207C30.2247 21.4153 29.7117 21.2427 29.2884 20.9277C28.8652 20.6127 28.5537 20.1716 28.3991 19.6686C25.939 11.8159 22.0792 6.7708 17.5266 5.46201C16.7497 5.24089 15.9453 5.12959 15.1373 5.13132V5.13132Z" fill="#A2A0A0"/>
</svg>
