<svg width="76" height="47" viewBox="0 0 76 47" fill="none" xmlns="http://www.w3.org/2000/svg">
<path d="M68.1918 46.4416H7.78345C5.75028 46.4397 3.8009 45.6313 2.36323 44.1936C0.925568 42.7559 0.117083 40.8065 0.115173 38.7734V8.66299C0.117083 6.62982 0.925568 4.68044 2.36323 3.24278C3.8009 1.80511 5.75028 0.996539 7.78345 0.994629H68.1918C70.225 0.996539 72.1743 1.80511 73.612 3.24278C75.0497 4.68044 75.8582 6.62982 75.8601 8.66299V38.7734C75.8582 40.8065 75.0497 42.7559 73.612 44.1936C72.1743 45.6313 70.225 46.4397 68.1918 46.4416ZM7.78345 6.04429C7.08953 6.04619 6.42461 6.32272 5.93394 6.8134C5.44327 7.30407 5.16674 7.96908 5.16483 8.66299V38.7734C5.16674 39.4673 5.44327 40.1323 5.93394 40.623C6.42461 41.1136 7.08953 41.39 7.78345 41.3919H68.1918C68.8857 41.39 69.5506 41.1136 70.0413 40.623C70.532 40.1323 70.8085 39.4673 70.8104 38.7734V8.66299C70.8085 7.96908 70.532 7.30407 70.0413 6.8134C69.5506 6.32272 68.8857 6.04619 68.1918 6.04429H7.78345Z" fill="#A2A0A0"/>
</svg>
