<svg width="87" height="51" viewBox="0 0 87 51" fill="none" xmlns="http://www.w3.org/2000/svg">
<path d="M60.9954 50.8101H26.3692C19.5773 50.8101 13.0635 48.15 8.26089 43.415C3.45827 38.68 0.760193 32.258 0.760193 25.5618C0.760193 18.8655 3.45827 12.4435 8.26089 7.70853C13.0635 2.97355 19.5773 0.313477 26.3692 0.313477H60.9954C67.7873 0.313477 74.3011 2.97355 79.1037 7.70853C83.9063 12.4435 86.6044 18.8655 86.6044 25.5618C86.6044 32.258 83.9063 38.68 79.1037 43.415C74.3011 48.15 67.7873 50.8101 60.9954 50.8101ZM26.3692 5.29201C20.9165 5.29201 15.6872 7.42754 11.8316 11.2289C7.97593 15.0302 5.80985 20.1859 5.80985 25.5618C5.80985 30.9376 7.97593 36.0934 11.8316 39.8947C15.6872 43.696 20.9165 45.8315 26.3692 45.8315H60.9954C66.4481 45.8315 71.6775 43.696 75.5331 39.8947C79.3887 36.0934 81.5547 30.9376 81.5547 25.5618C81.5547 20.1859 79.3887 15.0302 75.5331 11.2289C71.6775 7.42754 66.4481 5.29201 60.9954 5.29201H26.3692Z" fill="#A2A0A0"/>
</svg>
