<svg width="63" height="62" viewBox="0 0 63 62" fill="none" xmlns="http://www.w3.org/2000/svg">
<path d="M54.6843 61.0163H8.79399C6.67708 61.0145 4.64742 60.1898 3.15053 58.7234C1.65365 57.2571 0.811872 55.2689 0.809967 53.1952V8.24141C0.811872 6.16769 1.65365 4.17946 3.15053 2.71312C4.64742 1.24679 6.67708 0.422276 8.79399 0.42041H54.6843C56.8012 0.422276 58.8308 1.24679 60.3277 2.71312C61.8246 4.17946 62.6664 6.16769 62.6683 8.24141V53.1952C62.6664 55.2689 61.8246 57.2571 60.3277 58.7234C58.8308 60.1898 56.8012 61.0145 54.6843 61.0163V61.0163ZM8.79399 5.35264C8.01243 5.3545 7.26346 5.65934 6.71082 6.20071C6.15817 6.74207 5.84685 7.4758 5.84495 8.24141V53.1952C5.84685 53.9608 6.15817 54.6945 6.71082 55.2359C7.26346 55.7772 8.01243 56.0822 8.79399 56.0841H54.6843C55.4658 56.0822 56.2148 55.7772 56.7675 55.2359C57.3201 54.6945 57.6314 53.9608 57.6333 53.1952V8.24141C57.6314 7.4758 57.3201 6.74207 56.7675 6.20071C56.2148 5.65934 55.4658 5.3545 54.6843 5.35264H8.79399Z" fill="#A2A0A0"/>
</svg>
