<svg width="68" height="68" viewBox="0 0 68 68" fill="none" xmlns="http://www.w3.org/2000/svg">
<path d="M30.3514 67.3768C30.2187 67.3871 30.0853 67.3871 29.9526 67.3768C29.4932 67.302 29.0637 67.1004 28.7127 66.7948C28.3617 66.4891 28.103 66.0915 27.9658 65.6469L21.9059 45.9927L2.26622 39.8493C1.82122 39.7129 1.42334 39.4546 1.11762 39.1037C0.811908 38.7529 0.610551 38.3234 0.536434 37.8641C0.462318 37.4047 0.518388 36.9338 0.698247 36.5047C0.878107 36.0755 1.17459 35.7052 1.55412 35.4358L18.4166 23.5622L18.1959 2.99662C18.1905 2.5315 18.3155 2.07425 18.5567 1.67649C18.798 1.27873 19.1457 0.956391 19.5607 0.746004C19.9757 0.535618 20.4414 0.445539 20.9049 0.486011C21.3685 0.526483 21.8114 0.695944 22.1836 0.975063L38.6473 13.3114L58.1446 6.7481C58.5855 6.59942 59.0593 6.57722 59.5122 6.6838C59.9652 6.79037 60.3792 7.0215 60.7075 7.35116C61.0358 7.68082 61.2652 8.09584 61.3698 8.54911C61.4744 9.00238 61.4499 9.47589 61.2992 9.91599L54.6553 29.378L66.9248 45.8929C67.1988 46.2636 67.3645 46.7031 67.4036 47.1623C67.4428 47.6215 67.3537 48.0826 67.1463 48.4942C66.9389 48.9059 66.6214 49.2521 66.2291 49.4941C65.8367 49.7361 65.3848 49.8645 64.9238 49.8651V49.8651L44.3512 49.5591L32.4307 66.3304C32.1955 66.6608 31.8831 66.9287 31.5208 67.1111C31.1584 67.2934 30.757 67.3847 30.3514 67.3768V67.3768ZM8.5754 36.5749L24.6403 41.6006C25.0257 41.7224 25.376 41.9354 25.6612 42.2217C25.9464 42.5081 26.158 42.8591 26.2782 43.2448L31.2629 59.3257L41.0115 45.6082C41.2429 45.2757 41.5536 45.0059 41.9153 44.8232C42.2771 44.6406 42.6786 44.5507 43.0837 44.5618L59.9177 44.8109L49.8771 31.2857C49.6346 30.9619 49.4753 30.5837 49.4132 30.184C49.3511 29.7843 49.3882 29.3755 49.5211 28.9935L54.9615 13.0694L39.0034 18.444C38.6207 18.5712 38.213 18.6038 37.815 18.5394C37.417 18.4749 37.0404 18.3152 36.7176 18.0738L23.2447 7.97959L23.4227 24.8079C23.4273 25.2124 23.333 25.6119 23.1481 25.9716C22.9632 26.3314 22.6932 26.6405 22.3616 26.8722L8.5754 36.5749Z" fill="#A2A0A0"/>
</svg>
